<svg version="1.2" xmlns="http://www.w3.org/2000/svg" viewBox="0 0 319 63" width="319" height="63">
	<title>about_logo-svg</title>
	<defs>
		<clipPath clipPathUnits="userSpaceOnUse" id="cp1">
			<path d="m0 0h364v63h-364z"/>
		</clipPath>
		<linearGradient id="g1" x1="292.3" y1="24.1" x2="305.6" y2="31" gradientUnits="userSpaceOnUse">
			<stop offset="0" stop-color="#f0145a"/>
			<stop offset="1" stop-color="#693264"/>
		</linearGradient>
	</defs>
	<style>
		.s0 { fill: #46466e } 
		.s1 { fill: #f0145a } 
		.s2 { fill: #323264 } 
		.s3 { fill: url(#g1) } 
	</style>
	<g id="Clip-Path" clip-path="url(#cp1)">
		<g id="Layer">
			<path id="Layer" fill-rule="evenodd" class="s0" d="m9.2 60.9q-1.1 1.2-2.7 1.2-1.5 0-2.5-1-1.1-0.9-1.3-2.3h-1.1v3.1h-1.6v-7.6h1.6v3h1.1q0.2-1.3 1.3-2.3 1-0.9 2.5-0.9 1.6 0 2.7 1.2 1.1 1.1 1.2 2.8-0.1 1.7-1.2 2.8zm-1.1-4.6q-0.7-0.7-1.6-0.7-0.9 0-1.6 0.7-0.7 0.7-0.7 1.8 0 1.1 0.7 1.8 0.7 0.7 1.6 0.7 0.9 0 1.6-0.7 0.6-0.7 0.6-1.8 0-1.1-0.6-1.8z"/>
			<path id="Layer" fill-rule="evenodd" class="s0" d="m16.2 54.3q1.1 0 1.9 0.7 0.8 0.8 0.8 1.8 0 1.1-0.8 1.9-0.7 0.7-1.9 0.7h-1.6v2.5h-1.6v-7.6zm-1.6 1.4v2.2h1.5q0.5 0 0.8-0.3 0.3-0.3 0.3-0.8 0-0.4-0.3-0.7-0.3-0.3-0.8-0.4z"/>
			<path id="Layer" class="s0" d="m26.6 61.9v-4.8l-3.7 4.8h-1.4v-7.6h1.6v4.8l3.7-4.8h1.5v7.6z"/>
			<path id="Layer" fill-rule="evenodd" class="s0" d="m30.8 60.4q0 0 0.1-0.1 0.1-0.1 0.3-0.4 0.2-0.4 0.3-0.8 0.2-0.4 0.3-1 0.2-0.7 0.2-1.5v-2.3h5.2v6.1h1v3.1h-1.7v-1.6h-4.5v1.6h-1.7v-3.1zm2.7-2.3q-0.1 0.6-0.3 1-0.1 0.5-0.3 0.8-0.2 0.3-0.3 0.4l-0.1 0.1h3.2v-4.7h-2v0.9q0 0.8-0.2 1.5z"/>
			<path id="Layer" class="s0" d="m45.7 61.9v-4.8l-3.8 4.8h-1.4v-7.6h1.6v4.8l3.8-4.8h1.4v7.6z"/>
			<path id="Layer" class="s0" d="m51.9 56.6q0 0.7 0.3 1.1 0.4 0.3 1 0.3 0.5 0 0.8-0.1 0.4-0.1 0.6-0.3l0.2-0.1v-3.2h1.6v7.6h-1.6v-2.8q-0.7 0.4-1.8 0.4-1.3 0-2-0.8-0.8-0.7-0.8-2.1v-2.3h1.7z"/>
			<path id="Layer" class="s0" d="m66 61.9h-1.6v-3.1h-3.3v3.1h-1.7v-7.6h1.7v3h3.3v-3h1.6z"/>
			<path id="Layer" fill-rule="evenodd" class="s0" d="m70.6 60.1l-0.7 1.8h-1.7l3-7.6h1.7l3 7.6h-1.7l-0.7-1.8zm1.5-3.9l-1 2.5h1.9z"/>
			<path id="Layer" class="s0" d="m83 57.6l3-3.3h1.9l-2.8 3.1 3 4.5h-1.9l-2.2-3.3-1 1.1v2.2h-1.6v-7.6h1.6z"/>
			<path id="Layer" fill-rule="evenodd" class="s0" d="m91 55.3q1.2-1.2 2.9-1.2 1.8 0 3 1.2 1.2 1.1 1.2 2.8 0 1.6-1.2 2.8-1.2 1.2-3 1.2-1.7 0-2.9-1.2-1.2-1.2-1.2-2.8 0-1.7 1.2-2.8zm1.2 4.6q0.7 0.7 1.7 0.7 1 0 1.7-0.7 0.8-0.7 0.8-1.8 0-1.1-0.8-1.8-0.7-0.7-1.7-0.7-1 0-1.7 0.7-0.7 0.7-0.7 1.8 0 1.1 0.7 1.8z"/>
			<path id="Layer" class="s0" d="m107.4 54.3h1.4v7.6h-1.6v-5.1l-2.5 3.1-2.4-3.1v5.1h-1.6v-7.6h1.4l2.6 3.3z"/>
			<path id="Layer" class="s0" d="m118.4 61.9h-1.7v-6.2h-3.2v6.2h-1.6v-7.6h6.5z"/>
			<path id="Layer" fill-rule="evenodd" class="s0" d="m122.9 60.1l-0.6 1.8h-1.8l3-7.6h1.8l3 7.6h-1.8l-0.6-1.8zm1.4-3.9l-0.9 2.5h1.9z"/>
			<path id="Layer" class="s0" d="m137 61.9h-1.7v-3.1h-3.2v3.1h-1.7v-7.6h1.7v3h3.2v-3h1.7z"/>
			<path id="Layer" class="s0" d="m141.7 61.9h-1.7v-7.6h1.7z"/>
			<path id="Layer" fill-rule="evenodd" class="s0" d="m150.4 61.9h-1.7v-2.7h-1.4l-1.4 2.7h-1.8l1.6-2.9q0 0-0.1 0-0.1-0.1-0.3-0.3-0.3-0.2-0.4-0.4-0.2-0.2-0.4-0.7-0.1-0.4-0.1-0.8 0-1.1 0.7-1.8 0.8-0.7 1.9-0.7h3.4zm-4.1-4.4q0.3 0.2 0.7 0.2h1.7v-2h-1.7q-0.4 0-0.7 0.3-0.3 0.3-0.3 0.8 0 0.4 0.3 0.7z"/>
			<path id="Layer" class="s1" d="m5 14.9q0.1-0.1 0.3-0.3 0.2-0.3 0.9-0.8 0.7-0.5 1.5-0.9 0.8-0.4 2.1-0.8 1.2-0.3 2.4-0.3 4.4 0 7.1 2.9 2.7 3 2.7 7.9v14.4h-5v-14.4q0-2.6-1.7-4.4-1.6-1.8-4.1-1.8c-1.9 0-3.4 0.7-4.5 1.9q-1.7 1.9-1.7 5.3v13.4h-5v-36h5z"/>
			<path id="Layer" class="s2" d="m33.1 36.9h-5.1v-35.9h5.1z"/>
			<path id="Layer" fill-rule="evenodd" class="s2" d="m44.2 26.4c0.2 1.8 1.1 3.3 2.5 4.5 1.5 1.3 3.2 1.9 5.2 1.9 1.4 0 2.7-0.3 4-0.9q1.9-1 2.6-1.9l0.8-1 3.4 3.3c-0.2 0.2-0.3 0.3-0.5 0.6q-0.3 0.4-1.3 1.2c-0.7 0.6-1.5 1.1-2.3 1.6-0.7 0.4-1.7 0.8-2.9 1.2-1.3 0.4-2.5 0.6-3.8 0.6q-5.3 0-9.1-3.9-3.8-3.8-3.8-9.2c0-3.5 1.3-6.5 3.7-8.9q3.7-3.7 8.9-3.7 5.2 0 8.6 3.4 3.5 3.5 3.5 8.7l-0.3 2.5zm2.8-8.6c-1.3 1.1-2.1 2.5-2.6 4.3h14.3c-0.3-1.8-1.1-3.2-2.3-4.3-1.3-1.1-2.8-1.7-4.7-1.7-1.9 0-3.5 0.6-4.7 1.7z"/>
			<path id="Layer" fill-rule="evenodd" class="s2" d="m87.4 33.4l-0.4 0.3c-0.1 0.1-0.5 0.4-0.9 0.7q-0.7 0.6-1.6 1-0.8 0.3-2 0.7c-0.9 0.2-1.7 0.3-2.6 0.3-3.1 0-5.8-1.1-8.1-3.6-2.3-2.4-3.4-5.3-3.4-8.7 0-3.4 1.1-6.3 3.4-8.7 2.3-2.4 5-3.6 8.1-3.6 1.4 0 2.7 0.2 3.9 0.8q1.9 0.7 2.7 1.5l0.9 0.8v-2.6h5.1v23.1c0 3.5-1.2 6.4-3.5 8.8-2.5 2.3-5.3 3.5-8.8 3.5q-2.1 0-4-0.5-1.9-0.6-3.2-1.3-1.2-0.8-2.1-1.5c-0.6-0.5-1.1-0.9-1.3-1.3l-0.5-0.5 3.4-3.3c0.1 0.1 0.2 0.2 0.3 0.4q0.3 0.2 1 0.9c0.5 0.5 1 0.8 1.6 1.2 0.5 0.3 1.2 0.6 2.1 0.9 0.8 0.3 1.8 0.4 2.7 0.4 2.1 0 3.8-0.7 5.1-2.1q2.1-2.2 2.1-5.5zm-11.8-3.8c1.3 1.4 3 2.2 4.8 2.2 1.9 0 3.5-0.8 4.9-2.2 1.4-1.5 2.1-3.3 2.1-5.5 0-2.1-0.7-3.9-2.1-5.4-1.4-1.5-3-2.3-4.9-2.3-1.8 0-3.5 0.8-4.8 2.3-1.4 1.5-2.1 3.3-2.1 5.4 0 2.2 0.7 4 2.1 5.5z"/>
			<path id="Layer" fill-rule="evenodd" class="s2" d="m114.2 36.9v-2.5c-0.1 0-0.2 0.2-0.3 0.3-0.2 0.1-0.5 0.4-1 0.8q-0.7 0.5-1.6 0.9c-0.5 0.2-1.2 0.5-2.1 0.7-0.8 0.3-1.6 0.4-2.5 0.4-2.5 0-4.5-0.8-6.2-2.2q-2.5-2.2-2.5-5 0-3 1.9-5.1c1.3-1.4 3.1-2.3 5.3-2.6l9-1.6c0-1.3-0.5-2.4-1.5-3.3q-1.4-1.3-3.7-1.3-1.9 0-3.5 0.8c-1.1 0.6-1.8 1.1-2.2 1.7l-0.7 0.8-3.3-3.3c0.1-0.1 0.2-0.3 0.4-0.5 0.2-0.2 0.6-0.6 1.2-1.1 0.6-0.6 1.3-1 1.9-1.4 0.7-0.4 1.6-0.8 2.7-1.2q1.8-0.4 3.5-0.4 4.6 0 7.4 2.7c1.9 1.7 2.9 3.9 2.9 6.5v15.9zm-1.7-5.9c1.1-1.3 1.7-3 1.7-5.4v-0.5l-8 1.3c-0.9 0.2-1.6 0.6-2.2 1.1-0.6 0.6-0.8 1.4-0.8 2.3 0 0.8 0.3 1.5 1.1 2.1q1.2 0.9 3.2 0.9 3.2 0 5-1.8z"/>
			<path id="Layer" class="s2" d="m130.6 36.9h-5.1v-35.9h5.1z"/>
			<path id="Layer" class="s2" d="m150.7 18.5c-0.2-0.1-0.4-0.3-0.6-0.6q-0.4-0.4-1.7-0.9c-0.7-0.4-1.5-0.6-2.4-0.6q-1.7 0-2.6 0.8c-0.7 0.5-1 1.1-1 1.8q0 1.1 1 1.8c0.6 0.4 1.3 0.8 2.3 1.1 0.9 0.2 1.9 0.6 3 0.9 1.1 0.4 2.1 0.8 3 1.3q1.5 0.7 2.4 2.2 0.9 1.4 0.9 3.5c0 2.1-0.9 3.9-2.6 5.4-1.6 1.5-3.9 2.3-6.6 2.3-1.2 0-2.4-0.2-3.5-0.5q-1.6-0.5-2.7-1.1-1-0.6-1.8-1.3-0.8-0.6-1.2-1l-0.3-0.5 3.3-3.3c0.2 0.2 0.4 0.5 0.7 0.8 0.4 0.4 1.1 0.9 2.1 1.4 1.1 0.5 2.2 0.8 3.4 0.8 1.4 0 2.4-0.3 3.1-0.8 0.6-0.5 1-1.3 1-2.2q0-1.1-0.9-1.8-1-0.7-2.4-1.2c-0.9-0.2-1.9-0.5-3-0.9-1.1-0.4-2.1-0.8-3-1.3-1-0.4-1.8-1.1-2.4-2.1-0.6-1-0.9-2.1-0.9-3.5 0-1.9 0.8-3.6 2.5-5.1q2.5-2.1 6.2-2.1 1.5 0 2.9 0.3c0.9 0.2 1.7 0.5 2.3 0.8 0.5 0.4 1 0.7 1.5 1 0.5 0.4 0.8 0.7 1 0.9l0.3 0.3z"/>
			<path id="Layer" fill-rule="evenodd" class="s2" d="m185.2 21.1q2.7-2.7 6.6-2.7 3.9 0 6.6 2.7 2.7 2.8 2.7 6.8 0 4-2.7 6.7-2.7 2.8-6.6 2.8-3.9 0-6.6-2.8-2.7-2.7-2.7-6.7 0-4 2.7-6.8zm11.3 1.8q-1.9-2-4.7-2-2.7 0-4.7 2-1.9 2-1.9 5 0 2.9 1.9 5 2 2 4.7 2 2.8 0 4.7-2 2-2.1 2-5 0-3-2-5zm29.7 6.1h-10.4v8h-2.7v-18.2h2.7v7.8h10.4v-7.8h2.7v18.2h-2.7zm19.8-3.6q0-2-1.3-3.3-1.2-1.3-3.2-1.3-1.5 0-2.8 0.7-1.3 0.7-1.8 1.3l-0.6 0.7-1.7-1.7q0.1-0.2 0.3-0.4 0.2-0.2 0.9-0.8 0.6-0.6 1.3-1.1 0.8-0.4 1.9-0.8 1.2-0.3 2.5-0.4 3.1 0.1 5.1 2.1 2.1 2 2.1 5v11.6h-2.7v-2.5q-0.1 0.1-0.2 0.3-0.2 0.2-0.7 0.7-0.6 0.5-1.2 0.9-0.6 0.4-1.7 0.7-1 0.3-2.1 0.2-2.7 0-4.6-1.6-1.8-1.6-1.8-3.7-0.1-2.2 1.3-3.6 1.4-1.4 4-1.9zm-1.7 7.8q1.7-1.6 1.7-4.3v-1.2l-6.3 1.2q-3.4 0.6-3.4 3.2 0 1.2 1 2 1 0.8 2.8 0.8 2.5 0 4.2-1.7zm11.8-12q2.7-2.8 6.4-2.8 2.1 0 3.9 0.9 1.9 1 2.7 1.8l0.8 0.9-1.9 1.9q-0.1-0.1-0.3-0.3-0.1-0.2-0.6-0.7-0.5-0.6-1.1-1-0.6-0.4-1.5-0.7-1-0.3-2-0.3-2.6 0-4.6 2-1.9 2.1-1.9 5 0 3 1.9 5 2 2 4.6 2 1.6 0 3-0.7 1.4-0.8 2.1-1.6l0.6-0.7 1.9 1.7q-0.1 0.2-0.4 0.4-0.2 0.3-1 1-0.7 0.6-1.5 1.1-0.8 0.5-2.1 0.9-1.3 0.4-2.6 0.4-3.8 0-6.4-2.8-2.7-2.7-2.7-6.7 0-3.9 2.7-6.7z"/>
			<path id="Layer" fill-rule="evenodd" class="s3" d="m304.3 27.1h-12l5.3-15.9h5.9l-3.4 10.5h5.9z"/>
			<path id="Layer" fill-rule="evenodd" class="s1" d="m279.9 47.9h-5.9c0 0 10.8-33.1 13.3-40.8 1.1-3.7 4.5-6.1 8.3-6.1h10.6c3.1 0 5.8 1.3 7.5 3.6 1.6 2.3 2.1 5.2 1.1 8.2-1 2.9-1.9 5.7-2.7 8.3-1.1 3.5-4.2 5.9-7.8 6 0 0-0.1 0 5-15.5 0.4-1.4 0.3-2.7-0.4-3.7-0.7-0.9-1.9-1.5-3.5-1.5h-9c-1.8 0-3.4 1.1-3.9 2.8z"/>
			<path id="Layer" fill-rule="evenodd" class="s1" d="m175.2 1h5.9l-15.3 46.8h-5.8z"/>
		</g>
	</g>
</svg>